<svg aria-hidden="true" style="position: absolute; width: 0; height: 0; overflow: hidden;" version="1.1" xmlns="http://www.w3.org/2000/svg" xmlns:xlink="http://www.w3.org/1999/xlink">
<defs>
<symbol id="icon-instagram" viewBox="0 0 32 32">
<path fill="#b50505" style="fill: var(--color1, #b50505)" stroke-linejoin="miter" stroke-linecap="butt" stroke-miterlimit="4" stroke-width="1.3333" stroke="#000" d="M19.999 19.693c1.029-0.985 1.668-2.37 1.668-3.903 0-0.043-0-0.086-0.002-0.13l0 0.006h0.335v5.757c-0.001 0.036-0.017 0.068-0.041 0.091l-0 0c-0.033 0.031-0.078 0.051-0.128 0.051-0 0-0.001 0-0.002 0h-11.657c-0.119 0-0.172-0.085-0.172-0.141v-5.757h0.336c-0.001 0.037-0.001 0.080-0.001 0.123 0 1.534 0.639 2.918 1.666 3.902l0.002 0.002c1.064 1.027 2.503 1.599 3.997 1.599s2.933-0.573 3.999-1.6zM17.028 18.153c-0.304 0.125-0.658 0.198-1.028 0.199h-0c-0.003 0-0.006 0-0.009 0-0.732 0-1.396-0.288-1.886-0.756l0.001 0.001c-0.474-0.452-0.77-1.088-0.773-1.793v-0.001c0-0.668 0.275-1.313 0.772-1.793 0.499-0.48 1.18-0.756 1.893-0.756 0.355 0 0.704 0.067 1.029 0.197 0.327 0.129 0.62 0.32 0.867 0.557s0.44 0.519 0.573 0.827c0.126 0.285 0.199 0.617 0.199 0.967s-0.073 0.682-0.205 0.982l0.006-0.016c-0.132 0.307-0.325 0.589-0.573 0.827-0.245 0.237-0.54 0.427-0.865 0.557zM21.833 10.203v1.56h-1.668v-1.56h1.668zM5.149 5.376c2.873-2.773 6.776-4.335 10.851-4.335 2.017 0 4.013 0.384 5.876 1.127 1.93 0.78 3.582 1.864 4.98 3.21l-0.005-0.005c1.382 1.33 2.502 2.92 3.283 4.694l0.037 0.094c0.768 1.789 1.163 3.707 1.163 5.64 0 1.936-0.395 3.853-1.164 5.643-0.818 1.867-1.937 3.457-3.314 4.782l-0.005 0.005c-1.393 1.341-3.045 2.425-4.872 3.168l-0.103 0.037c-1.739 0.714-3.757 1.128-5.872 1.128-0.001 0-0.003 0-0.004 0h0c-4.075 0-7.977-1.561-10.851-4.333-2.873-2.767-4.483-6.519-4.483-10.425s1.609-7.659 4.483-10.429zM22.483 24.505c1.363 0 2.517-1.080 2.517-2.452v-12.499c0-1.373-1.155-2.453-2.519-2.453h-12.961c-1.364 0-2.519 1.080-2.519 2.453v12.499c0 1.373 1.155 2.453 2.519 2.453h12.963z"></path>
</symbol>
<symbol id="icon-fb" viewBox="0 0 32 32">
<path fill="#b50505" style="fill: var(--color1, #b50505)" stroke-linejoin="miter" stroke-linecap="butt" stroke-miterlimit="4" stroke-width="1.3333" stroke="#000" d="M22 14.325v-2.232c0-0.479 0.136-0.931 0.403-1.252 0.249-0.3 0.664-0.547 1.369-0.547h2.795v-5.797l-3.871-0.003c-2.399 0-4.261 0.689-5.524 1.963-1.261 1.271-1.839 3.037-1.839 5.019v2.847h-3.556v5.576h3.556v10.667h-11.777c-1.611 0-2.889-1.267-2.889-2.763v-23.997c0-1.495 1.279-2.763 2.889-2.763h24.888c1.611 0 2.889 1.267 2.889 2.763v23.997c0 1.496-1.279 2.763-2.889 2.763h-6.444v-10.667h3.416l0.121-0.512 1.009-4.24 0.196-0.821h-4.743z"></path>
</symbol>
<symbol id="icon-check-circle" viewBox="0 0 32 32">
<path fill="#b50505" style="fill: var(--color1, #b50505)" opacity="0.99" d="M13.75 21.458c-0.001 0-0.002 0-0.004 0-0.367 0-0.7-0.149-0.94-0.39l-3.749-3.75c-0.225-0.238-0.364-0.561-0.364-0.915 0-0.737 0.597-1.334 1.334-1.334 0.355 0 0.677 0.138 0.916 0.364l-0.001-0.001 2.807 2.808 7.308-7.306c0.239-0.229 0.564-0.37 0.922-0.37 0.736 0 1.333 0.597 1.333 1.333 0 0.358-0.141 0.682-0.37 0.922l0-0.001-8.25 8.25c-0.241 0.241-0.573 0.39-0.941 0.39-0.001 0-0.001 0-0.002 0h0.001z"></path>
<path fill="#b50505" style="fill: var(--color1, #b50505)" opacity="0.5" d="M16 2.666c-7.364 0-13.334 5.97-13.334 13.334s5.97 13.334 13.334 13.334c7.364 0 13.334-5.97 13.334-13.334v0c-0.008-7.361-5.973-13.326-13.333-13.334h-0.001zM22.942 12.818l-8.25 8.25c-0.241 0.241-0.575 0.39-0.943 0.39s-0.701-0.149-0.943-0.39l-3.749-3.75c-0.225-0.238-0.364-0.561-0.364-0.915 0-0.737 0.597-1.334 1.334-1.334 0.355 0 0.677 0.138 0.916 0.364l-0.001-0.001 2.807 2.808 7.308-7.306c0.239-0.229 0.564-0.37 0.922-0.37 0.736 0 1.333 0.597 1.333 1.333 0 0.358-0.141 0.682-0.37 0.922l0-0.001z"></path>
<path fill="none" stroke="#000" style="stroke: var(--color2, #000)" stroke-linejoin="miter" stroke-linecap="butt" stroke-miterlimit="4" stroke-width="0.8" d="M0.4 0.4h31.2v31.2h-31.2z"></path>
</symbol>
<symbol id="icon-comment-alt-dots" viewBox="0 0 30 32">
<path fill="#fff" style="fill: var(--color3, #fff)" opacity="0.5" d="M23.23 2.37h-16.593c-1.963 0.002-3.554 1.593-3.556 3.555v11.852c0.002 1.963 1.593 3.554 3.555 3.556h13.732l4.394 4.393c0.214 0.214 0.511 0.347 0.838 0.347 0.654 0 1.185-0.53 1.185-1.184v-18.963c-0.002-1.963-1.593-3.554-3.555-3.556h-0zM10.192 13.037c-0.654 0-1.185-0.53-1.185-1.185s0.53-1.185 1.185-1.185v0c0.654 0 1.185 0.53 1.185 1.185s-0.53 1.185-1.185 1.185v0zM14.933 13.037c-0.655 0-1.185-0.531-1.185-1.185s0.531-1.185 1.185-1.185v0c0.655 0 1.185 0.531 1.185 1.185s-0.531 1.185-1.185 1.185v0zM19.674 13.037c-0.654 0-1.185-0.53-1.185-1.185s0.53-1.185 1.185-1.185v0c0.654 0 1.185 0.53 1.185 1.185s-0.53 1.185-1.185 1.185v0z"></path>
<path fill="#fff" style="fill: var(--color3, #fff)" d="M10.192 13.037c0.009 0 0.019 0 0.029 0 0.655 0 1.185-0.531 1.185-1.185s-0.531-1.185-1.185-1.185c-0.010 0-0.020 0-0.031 0l0.002-0c-0.642 0.016-1.156 0.541-1.156 1.185s0.514 1.169 1.155 1.185l0.002 0zM14.933 13.037c0.009 0 0.019 0 0.029 0 0.655 0 1.185-0.531 1.185-1.185s-0.531-1.185-1.185-1.185c-0.010 0-0.020 0-0.031 0l0.002-0c-0.642 0.016-1.156 0.541-1.156 1.185s0.514 1.169 1.155 1.185l0.002 0zM19.674 13.037c0.009 0 0.019 0 0.029 0 0.655 0 1.185-0.531 1.185-1.185s-0.531-1.185-1.185-1.185c-0.010 0-0.020 0-0.031 0l0.002-0c-0.642 0.016-1.156 0.541-1.156 1.185s0.514 1.169 1.155 1.185l0.002 0z"></path>
</symbol>
<symbol id="icon-comment-plus" viewBox="0 0 37 32">
<path fill="#463acd" style="fill: var(--color4, #463acd)" d="M23.081 14.756h-2.913v-2.643c-0.004-0.371-0.167-0.704-0.425-0.932l-0.001-0.001c-0.27-0.24-0.627-0.387-1.019-0.387-0.004 0-0.008 0-0.012 0h0.001c-0.387 0-0.756 0.139-1.029 0.387-0.259 0.23-0.423 0.562-0.427 0.933v2.643h-2.913c-0.387 0-0.757 0.139-1.031 0.387-0.259 0.23-0.423 0.562-0.427 0.933v0.001c0 0.351 0.153 0.687 0.427 0.935s0.644 0.387 1.031 0.387h2.913v2.643c0 0.351 0.153 0.685 0.427 0.933s0.644 0.387 1.029 0.387c0.387 0 0.757-0.139 1.031-0.387 0.259-0.23 0.423-0.562 0.427-0.933v-2.643h2.913c0.387 0 0.757-0.139 1.031-0.387 0.259-0.23 0.423-0.562 0.427-0.933v-0.001c-0.003-0.372-0.167-0.705-0.425-0.934l-0.001-0.001c-0.27-0.24-0.627-0.387-1.019-0.387-0.004 0-0.008 0-0.012 0h0.001z"></path>
<path fill="#463acd" style="fill: var(--color4, #463acd)" opacity="0.5" d="M18.711 2.867c-2.757 0-5.457 0.709-7.788 2.045s-4.195 3.245-5.376 5.505c-0.884 1.641-1.404 3.592-1.404 5.664 0 0.562 0.038 1.116 0.112 1.658l-0.007-0.063c0.333 2.481 1.439 4.827 3.184 6.763l-2.861 2.593c-0.195 0.174-0.336 0.406-0.397 0.667l-0.002 0.009c-0.018 0.078-0.028 0.167-0.028 0.258 0 0.183 0.041 0.357 0.114 0.512l-0.003-0.007c0.111 0.241 0.297 0.448 0.536 0.593 0.24 0.145 0.521 0.223 0.809 0.223h13.111c3.864 0 7.569-1.392 10.301-3.869s4.267-5.837 4.267-9.34c0-3.504-1.535-6.864-4.267-9.341s-6.437-3.869-10.301-3.869zM23.081 17.397h-2.913v2.643c-0.004 0.371-0.167 0.704-0.425 0.932l-0.001 0.001c-0.273 0.248-0.644 0.387-1.031 0.387s-0.756-0.139-1.029-0.387c-0.259-0.23-0.423-0.562-0.427-0.933v-2.643h-2.913c-0.387 0-0.757-0.139-1.031-0.387-0.259-0.23-0.423-0.562-0.427-0.933v-0.001c0-0.351 0.153-0.687 0.427-0.935s0.644-0.387 1.031-0.387h2.913v-2.643c0-0.351 0.153-0.687 0.427-0.933 0.273-0.248 0.644-0.387 1.029-0.387 0.387 0 0.757 0.139 1.031 0.387 0.273 0.247 0.427 0.583 0.427 0.933v2.643h2.913c0.387 0 0.757 0.139 1.031 0.387 0.272 0.248 0.427 0.584 0.427 0.933-0.003 0.372-0.167 0.705-0.425 0.933l-0.001 0.001c-0.273 0.248-0.644 0.387-1.031 0.387z"></path>
</symbol>
<symbol id="icon-check-circle" viewBox="0 0 32 32">
<path opacity="0.99" d="M13.75 21.458c-0.001 0-0.002 0-0.004 0-0.367 0-0.7-0.149-0.94-0.39l-3.749-3.75c-0.225-0.238-0.364-0.561-0.364-0.915 0-0.737 0.597-1.334 1.334-1.334 0.355 0 0.677 0.138 0.916 0.364l-0.001-0.001 2.807 2.808 7.308-7.306c0.239-0.229 0.564-0.37 0.922-0.37 0.736 0 1.333 0.597 1.333 1.333 0 0.358-0.141 0.682-0.37 0.922l0-0.001-8.25 8.25c-0.241 0.241-0.573 0.39-0.941 0.39-0.001 0-0.001 0-0.002 0h0.001z"></path>
<path opacity="0.5" d="M16 2.666c-7.364 0-13.334 5.97-13.334 13.334s5.97 13.334 13.334 13.334c7.364 0 13.334-5.97 13.334-13.334v0c-0.008-7.361-5.973-13.326-13.333-13.334h-0.001zM22.942 12.818l-8.25 8.25c-0.241 0.241-0.575 0.39-0.943 0.39s-0.701-0.149-0.943-0.39l-3.749-3.75c-0.225-0.238-0.364-0.561-0.364-0.915 0-0.737 0.597-1.334 1.334-1.334 0.355 0 0.677 0.138 0.916 0.364l-0.001-0.001 2.807 2.808 7.308-7.306c0.239-0.229 0.564-0.37 0.922-0.37 0.736 0 1.333 0.597 1.333 1.333 0 0.358-0.141 0.682-0.37 0.922l0-0.001z"></path>
</defs>
</svg>
